<svg width="14" height="10" viewBox="0 0 14 10" fill="none" xmlns="http://www.w3.org/2000/svg">
<path d="M13.5057 0.313134C13.2203 0.0881324 12.8497 -0.0230606 12.4754 0.00399411C12.1011 0.0310489 11.7538 0.194137 11.5098 0.457415L5.41409 7.03622L2.13478 4.5099C2.00495 4.40685 1.85423 4.32863 1.69136 4.27981C1.5285 4.23098 1.35674 4.21252 1.18607 4.22549C1.0154 4.23846 0.849232 4.28261 0.697217 4.35537C0.545202 4.42813 0.410376 4.52805 0.300575 4.64932C0.190774 4.77059 0.108189 4.91079 0.0576216 5.06177C0.00705366 5.21275 -0.0104886 5.3715 0.00601422 5.5288C0.0225171 5.68609 0.0727359 5.83879 0.153752 5.97802C0.234767 6.11724 0.344964 6.24022 0.477935 6.3398L4.87144 9.72506C5.00691 9.82929 5.1642 9.90667 5.33349 9.95235C5.50278 9.99804 5.68046 10.0111 5.85544 9.9906C6.04102 9.97737 6.22195 9.93049 6.38788 9.85266C6.5538 9.77482 6.70147 9.66755 6.82242 9.53699L13.6612 2.15454C13.9047 1.89096 14.025 1.54899 13.9957 1.20366C13.9663 0.858329 13.7897 0.537858 13.5045 0.312572" fill="white"/>
</svg>
