<svg width="44" height="44" viewBox="0 0 44 44" fill="none" xmlns="http://www.w3.org/2000/svg">
<path d="M8.38744 8.38756C8.90314 7.87201 9.60249 7.5824 10.3317 7.5824C11.0609 7.5824 11.7602 7.87201 12.2759 8.38756L21.9999 18.1116L31.7239 8.38756C32.2426 7.88663 32.9373 7.60944 33.6583 7.61571C34.3793 7.62197 35.0691 7.91119 35.5789 8.42106C36.0888 8.93093 36.378 9.62067 36.3843 10.3417C36.3906 11.0627 36.1134 11.7574 35.6124 12.2761L25.8884 22.0001L35.6124 31.7241C36.1134 32.2427 36.3906 32.9374 36.3843 33.6584C36.378 34.3795 36.0888 35.0692 35.5789 35.5791C35.0691 36.0889 34.3793 36.3781 33.6583 36.3844C32.9373 36.3907 32.2426 36.1135 31.7239 35.6126L21.9999 25.8886L12.2759 35.6126C11.7573 36.1135 11.0626 36.3907 10.3416 36.3844C9.62054 36.3781 8.93081 36.0889 8.42094 35.5791C7.91106 35.0692 7.62185 34.3795 7.61558 33.6584C7.60932 32.9374 7.8865 32.2427 8.38744 31.7241L18.1114 22.0001L8.38744 12.2761C7.87189 11.7604 7.58228 11.061 7.58228 10.3318C7.58228 9.60261 7.87189 8.90326 8.38744 8.38756Z" fill="black"/>
</svg>
