<svg width="24" height="24" viewBox="0 0 24 24" fill="none" xmlns="http://www.w3.org/2000/svg">
<path d="M12 1C5.652 1 0.5 6.152 0.5 12.5C0.5 18.848 5.652 24 12 24C18.348 24 23.5 18.848 23.5 12.5C23.5 6.152 18.348 1 12 1ZM17.336 8.82C17.1635 10.637 16.416 15.053 16.0365 17.0885C15.8755 17.951 15.5535 18.2385 15.2545 18.273C14.5875 18.3305 14.0815 17.836 13.4375 17.4105C12.4255 16.7435 11.8505 16.3295 10.873 15.6855C9.7345 14.938 10.4705 14.524 11.126 13.857C11.2985 13.6845 14.2425 11.005 14.3 10.7635C14.308 10.7269 14.3069 10.6889 14.2969 10.6529C14.2869 10.6168 14.2682 10.5837 14.2425 10.5565C14.1735 10.499 14.0815 10.522 14.001 10.5335C13.8975 10.5565 12.2875 11.626 9.148 13.742C8.688 14.0525 8.274 14.2135 7.906 14.202C7.492 14.1905 6.71 13.972 6.1235 13.7765C5.399 13.5465 4.8355 13.42 4.8815 13.0175C4.9045 12.8105 5.192 12.6035 5.7325 12.385C9.0905 10.9245 11.3215 9.9585 12.437 9.4985C15.634 8.1645 16.2895 7.9345 16.7265 7.9345C16.8185 7.9345 17.037 7.9575 17.175 8.0725C17.29 8.1645 17.3245 8.291 17.336 8.383C17.3245 8.452 17.3475 8.659 17.336 8.82Z" fill="white"/>
</svg>
